# xmcd
# 
# Track frame offsets:
#     150
#     4636
#     6238
#     7556
#     8572
#     13053
#     17485
#     23036
#     28590
#     34108
#     35211
#     36481
#     37716
#     44778
#     45739
#     50185
#     51030
#     56746
#     57684
#     58600
#     59504
#     64407
#     65373
#     81588
#     89239
#     97942
#     102063
#     106440
#     107115
#     107803
#     116120
#     120705
#     125203
#     126173
#     127212
#     137295
#     138269
#     139074
#     149616
#     157830
#     158356
#     159021
#     163653
#     164772
#     165793
#     167594
#     170615
#     179955
#     187880
#     188682
#     189539
#     190473
#     198899
#     199704
#     200612
#     201393
#     212594
#     213453
#     214443
#     215473
#     224029
#     225016
#     225892
#     226768
#     243177
#     244261
#     245265
#     246209
#     263530
#     264238
#     265197
#     266183
#     272462
#     273308
#     274188
# 
# Disc length: 3664
# 
# Revision: 1
# Processed by: cddbd v1.5.2PL0 Copyright (c) Steve Scherf et al.
# Submitted via: fre:ac v1.0.17
# 
DISCID=480e4e4b
DTITLE=Hal Leonard - Blues Guitar
DYEAR=2002
DGENRE=Instructional
TTITLE0=The 12-Bar Blues
TTITLE1=Slow Shuffle
TTITLE2=Medium Shuffle
TTITLE3=Fast Shuffle
TTITLE4=Sweet Home Chicago
TTITLE5=The Blues Scale
TTITLE6=Love in Vain Blues
TTITLE7=Blues Phrasing
TTITLE8=From Four Until Late
TTITLE9=String Bending
TTITLE10=The Double Stop
TTITLE11=The Slide
TTITLE12=Sitting on Top of the World
TTITLE13=The Pull-Off
TTITLE14=Mary Had a Little Lamb
TTITLE15=Vibrato
TTITLE16=I Can't Be Satisfied
TTITLE17=Shuffle in E
TTITLE18=Shuffle in A
TTITLE19=Shuffle in D
TTITLE20=Look at Little Sister
TTITLE21=The Hammer-On
TTITLE22=You Shook Me
TTITLE23=Harmonized Shuffle Patterns
TTITLE24=Ramblin' on My Mind
TTITLE25=Boogie Pattern 1
TTITLE26=Boogie Pattern 2
TTITLE27=Movable Shuffle Pattern in G
TTITLE28=Movable Shuffle Pattern in C
TTITLE29=Blow, Wind, Blow
TTITLE30=I Believe I'll Dust My Broom
TTITLE31=Killing Floor
TTITLE32=The Style of B.B. King - Lick 1
TTITLE33=The Style of B.B. King - Lick 2
TTITLE34=Rock Me Baby
TTITLE35=The Style of Albert King - Lick 1
TTITLE36=The Style of Albert King - Lick 2
TTITLE37=Born Under a Bad Sign
TTITLE38=(They Call It) Stormy Monday (Stormy Monday Blues)
TTITLE39=The Style of Freddie King - Lick 1
TTITLE40=The Style of Freddie King - Lick 2
TTITLE41=I'm Tore Down
TTITLE42=I'm Leavin' You (Commit a Crime)
TTITLE43=Boom Boom
TTITLE44=Mannish Boy
TTITLE45=Minor Blues
TTITLE46=Double Trouble
TTITLE47=Medium Shuffle Blues
TTITLE48=Lick in the Style of Freddie King
TTITLE49=Lick 1 in the Style of B.B. King
TTITLE50=Lick 2 in the Style of B.B. King
TTITLE51=Funky Blues
TTITLE52=Lick in the Style of Albert Collins
TTITLE53=Lick 1 in the Style of Stevie Ray Vaughan
TTITLE54=Lick in the Style of Jimmie Vaughan
TTITLE55=Slow Minor Blue
TTITLE56=Lick 3 in the Style of B.B. King
TTITLE57=Lick in the Style of Billy Gibbons
TTITLE58=Lick 1 in the Style of Eric Clapton
TTITLE59=Rhumba Blues
TTITLE60=Lick in the Style of Albert King
TTITLE61=Lick in the Style of Jimi Hendrix
TTITLE62=Lick in the Style of Dickey Betts
TTITLE63=Slow Shuffle Blues
TTITLE64=Lick 2 in the Style of Stevie Ray Vaughan
TTITLE65=Lick in the Style of Buddy Guy
TTITLE66=Lick 2 in the Style of Eric Clapton
TTITLE67=Slow Blues/Jazz
TTITLE68=Lick 1 in the Style of T-Bone Walker
TTITLE69=Lick 4 in the Style of B.B. King
TTITLE70=Lick 5 in the Style of B.B. King
TTITLE71=Swing Blues
TTITLE72=Lick 2 in the Style of T-Bone Walker
TTITLE73=Lick 3 in the Style of T-Bone Walker
TTITLE74=Lick in the Style of Charlie Christian
EXTD=
EXTT0=
EXTT1=
EXTT2=
EXTT3=
EXTT4=
EXTT5=
EXTT6=
EXTT7=
EXTT8=
EXTT9=
EXTT10=
EXTT11=
EXTT12=
EXTT13=
EXTT14=
EXTT15=
EXTT16=
EXTT17=
EXTT18=
EXTT19=
EXTT20=
EXTT21=
EXTT22=
EXTT23=
EXTT24=
EXTT25=
EXTT26=
EXTT27=
EXTT28=
EXTT29=
EXTT30=
EXTT31=
EXTT32=
EXTT33=
EXTT34=
EXTT35=
EXTT36=
EXTT37=
EXTT38=
EXTT39=
EXTT40=
EXTT41=
EXTT42=
EXTT43=
EXTT44=
EXTT45=
EXTT46=
EXTT47=
EXTT48=
EXTT49=
EXTT50=
EXTT51=
EXTT52=
EXTT53=
EXTT54=
EXTT55=
EXTT56=
EXTT57=
EXTT58=
EXTT59=
EXTT60=
EXTT61=
EXTT62=
EXTT63=
EXTT64=
EXTT65=
EXTT66=
EXTT67=
EXTT68=
EXTT69=
EXTT70=
EXTT71=
EXTT72=
EXTT73=
EXTT74=
PLAYORDER=
